# xmcd
#
# Track frame offsets: 
#        150
#        11219
#        23936
#        32720
#        41976
#        52887
#        64233
#        74385
#        87166
#        95049
#        105403
#        114365
#        125248
#        135378
#        147087
#        159337
#        170308
#        181057
#        190977
#        201780
#        213436
#        225638
#        245931
#
# Disc length: 3526 seconds
#
# Revision: 2
# Processed by: cddbd v1.5.2PL0 Copyright (c) Steve Scherf et al.
# Submitted via: ExactAudioCopy v1.0b1
#
DISCID=490dc417
DTITLE=Nathaniel Mayer - (I Want) Love and Affection (Not the House of
DTITLE=Correction)
DYEAR=2007
DGENRE=R&B
TTITLE0=My Last Dance With You
TTITLE1=My Little Darling
TTITLE2=King Of Paradise
TTITLE3=Village Of Love
TTITLE4=I Want A Woman
TTITLE5=My Lonely Island
TTITLE6=Leave Me Alone
TTITLE7=Hurting Love
TTITLE8=Lover Please
TTITLE9=Work It Out
TTITLE10=Well, I've Got News (For You)
TTITLE11=Mr. Santa Claus (Bringe Me My Baby)
TTITLE12=I Had A Dream
TTITLE13=I'm Not Gonna Cry
TTITLE14=Summertime
TTITLE15=Going Back To The Village Of Love
TTITLE16=A Place I Know
TTITLE17=Don't Come Back
TTITLE18=From Now On
TTITLE19=(I Want) Love And Affection (Not The House Of Correction)
TTITLE20=Where Will You Be?
TTITLE21=Super Boogie
TTITLE22=Raise The Curtain High
EXTD=
EXTT0=
EXTT1=
EXTT2=
EXTT3=
EXTT4=
EXTT5=
EXTT6=
EXTT7=
EXTT8=
EXTT9=
EXTT10=
EXTT11=
EXTT12=
EXTT13=
EXTT14=
EXTT15=
EXTT16=
EXTT17=
EXTT18=
EXTT19=
EXTT20=
EXTT21=
EXTT22=
PLAYORDER=
